<?xml version="1.0" encoding="utf-8"?>
<!-- Generator: Adobe Illustrator 16.0.0, SVG Export Plug-In . SVG Version: 6.00 Build 0)  -->
<!DOCTYPE svg PUBLIC "-//W3C//DTD SVG 1.1//EN" "http://www.w3.org/Graphics/SVG/1.1/DTD/svg11.dtd">
<svg version="1.1" xmlns="http://www.w3.org/2000/svg" xmlns:xlink="http://www.w3.org/1999/xlink" x="0px" y="0px" width="2000px"
	 height="2000px" viewBox="0 0 2000 2000" style="enable-background:new 0 0 2000 2000;" xml:space="preserve">
<g id="Button">
</g>
<g id="Minus">
</g>
<g id="Plus">
</g>
<g id="Globe">
</g>
<g id="collapse">
</g>
<g id="Airports">
</g>
<g id="Airports__x28_marker_x29_">
</g>
<g id="Flights">
</g>
<g id="Ebene_9">
	<circle style="fill:#00ACAE;" cx="1000" cy="1000" r="1000"/>
	<path style="fill:#F5EFD5;" d="M1000,400c-331.4,0-600,268.6-600,600s268.6,600,600,600c331.4,0,600-268.6,600-600
		S1331.4,400,1000,400z M1000,1500c-276.1,0-500-223.9-500-500s223.9-500,500-500c276.1,0,500,223.9,500,500S1276.1,1500,1000,1500z
		"/>
	<g>
		<rect x="250" y="950" style="fill:#F5EFD5;" width="530" height="100"/>
		<rect x="1220" y="950" style="fill:#F5EFD5;" width="530" height="100"/>
	</g>
	<g>
		<rect x="950" y="1220" style="fill:#F5EFD5;" width="100" height="530"/>
		<rect x="950" y="250" style="fill:#F5EFD5;" width="100" height="530"/>
	</g>
</g>
<g id="Ebene_10">
</g>
</svg>
