<?xml version="1.0" encoding="utf-8"?>
<!-- Generator: Adobe Illustrator 16.0.0, SVG Export Plug-In . SVG Version: 6.00 Build 0)  -->
<!DOCTYPE svg PUBLIC "-//W3C//DTD SVG 1.1//EN" "http://www.w3.org/Graphics/SVG/1.1/DTD/svg11.dtd">
<svg version="1.1" xmlns="http://www.w3.org/2000/svg" xmlns:xlink="http://www.w3.org/1999/xlink" x="0px" y="0px" width="2000px"
	 height="2000px" viewBox="0 0 2000 2000" style="enable-background:new 0 0 2000 2000;" xml:space="preserve">
<g id="Button">
	<circle style="fill:#00ACAE;" cx="1000" cy="1000" r="1000"/>
</g>
<g id="Minus">
</g>
<g id="Plus">
</g>
<g id="Globe">
	<path style="fill:#0071BC;stroke:#F5EFD5;stroke-width:50;stroke-miterlimit:10;" d="M1734,1000c0,202.6-71.7,375.6-215,519
		s-316.3,215-519,215s-375.6-71.7-519-215s-215-316.3-215-519s71.7-375.6,215-519s316.3-215,519-215s375.6,71.7,519,215
		S1734,797.4,1734,1000z M1467.4,489.6c-89.4-81.7-192.3-136.2-308.9-163.4c55.9,87,102.7,179.4,140.5,277.4
		C1361,571.6,1417.2,533.6,1467.4,489.6z M1692.4,979.2c-5.3-178.2-70-331.6-194.3-460.2c-54.5,48.3-115.9,89.6-184.2,124
		c41.6,118.5,63.8,230.6,66.7,336.2H1692.4z M1260.2,621.5c-42.1-110.9-95.3-213.1-159.8-306.8c-28.2-4.3-54.7-6.7-79.6-7.2v374.9
		C1097.7,679.1,1177.5,658.8,1260.2,621.5z M978.5,682.5V307.6c-24.4,0.5-50.7,2.9-78.8,7.2c-64,93.7-117.3,195.9-159.8,306.8
		C822.5,658.8,902,679.1,978.5,682.5z M1338.3,979.2c-2.9-98.9-23.9-204.8-63.1-317.5c-87,38.7-171.8,59.7-254.5,63.1v254.5H1338.3z
		 M1692.4,1021.5h-311.8c-2.9,105.1-25.1,217-66.7,335.5c68.3,34.9,129.7,76.2,184.2,124C1622.4,1352.9,1687.2,1199.7,1692.4,1021.5
		z M841.6,326.2C725,353.4,622,407.9,532.6,489.6c50.2,44,106.3,82,168.4,114C738.8,506.1,785.7,413.7,841.6,326.2z M978.5,979.2
		V724.8c-82.2-3.3-166.8-24.4-253.7-63.1c-39.2,112.8-60.2,218.6-63.1,317.5H978.5z M1338.3,1021.5h-317.5v253.7
		c82.7,3.3,167.5,24.4,254.5,63.1C1314.4,1225.6,1335.5,1119.9,1338.3,1021.5z M1467.4,1510.4c-50.2-44-106.3-82-168.4-114
		c-37.8,97.5-84.6,190-140.5,277.4C1275,1646.6,1378,1592.1,1467.4,1510.4z M686,643c-68.3-34.9-129.7-76.2-184.2-124
		c-124.2,128.1-189,281.5-194.3,460.2h311.8C622.2,873.6,644.5,761.5,686,643z M978.5,1275.2v-253.7H661.7
		c2.9,98.4,23.9,204,63.1,316.8C811.7,1299.6,896.3,1278.6,978.5,1275.2z M1260.2,1378.5c-82.7-37.3-162.5-57.6-239.4-60.9v374.9
		c24.8-0.5,51.4-2.9,79.6-7.2C1164.4,1591.6,1217.7,1489.3,1260.2,1378.5z M978.5,1692.4v-374.9c-76.5,3.3-156,23.7-238.7,60.9
		c42.1,110.9,95.3,213.1,159.8,306.8C927.8,1689.6,954.1,1691.9,978.5,1692.4z M686,1357c-41.6-118.5-63.8-230.3-66.7-335.5H307.6
		c5.3,177.8,70,330.9,194.3,459.5C556.3,1433.2,617.7,1391.8,686,1357z M841.6,1673.8c-55.9-87.4-102.7-179.9-140.5-277.4
		c-62.1,32-118.3,70-168.4,114C622,1592.1,725,1646.6,841.6,1673.8z"/>
</g>
<g id="collapse">
</g>
<g id="Airports">
</g>
<g id="Airports__x28_marker_x29_">
</g>
<g id="Flights">
</g>
<g id="Ebene_9">
</g>
<g id="Ebene_10">
</g>
</svg>
