<?xml version="1.0" encoding="utf-8"?>
<!-- Generator: Adobe Illustrator 16.0.0, SVG Export Plug-In . SVG Version: 6.00 Build 0)  -->
<!DOCTYPE svg PUBLIC "-//W3C//DTD SVG 1.1//EN" "http://www.w3.org/Graphics/SVG/1.1/DTD/svg11.dtd">
<svg version="1.1" xmlns="http://www.w3.org/2000/svg" xmlns:xlink="http://www.w3.org/1999/xlink" x="0px" y="0px" width="2000px"
	 height="2000px" viewBox="0 0 2000 2000" style="enable-background:new 0 0 2000 2000;" xml:space="preserve">
<g id="Button">
</g>
<g id="Minus">
</g>
<g id="Plus">
</g>
<g id="Globe">
</g>
<g id="collapse">
</g>
<g id="Airports">
</g>
<g id="Airports__x28_marker_x29_">
</g>
<g id="Flights">
	<path id="airplane_1_" style="fill:#F37606;stroke:#F37606;stroke-width:80;stroke-miterlimit:10;" d="M1649.2,358.5
		c-36.2-36.2-154.6,47.5-208.2,88.7c-15.6,13.1-30.1,24.7-43.6,38.1l-142.8,142.8c-8.5,7.8-12.4,8.4-22.1,6.9L1006,600.7
		c-14.1-3.7-25.5-15.5-6.7-32.5l12.8-12.8c7-7,6.1-19.4-2.2-27.8L991.1,509c-8.3-8.3-20.8-9.4-27.9-2.3l-74.9,74.9
		c-2.2,2.3-2.9,2-6.3,1.6l-216.7-30.8c-20.1-5.2-17.5-17.2-5-31l23.3-23.3c7-7,6.1-19.4-2.2-27.7l-18.7-18.7
		c-8.3-8.3-20.8-9.4-27.9-2.3l-77.6,77.6c-1,1-1.5,0.6-2.6,0.6l-229.4-35.9c-17.6,0.7-26.8-0.2-41.9,15.7l-44,43
		c-7,4.9-2.8,13.7,3.6,16.5c0,0,344.9,108.4,464.2,162.9C826.6,784,964.7,877.6,964.7,877.6c10.8,7.1,19,14.9,14.3,26.4
		l-327.2,327.2c-38.8,39.3-45,80.4-76.7,76.7L312,1282.1c-16.7-0.9-28.5,0.8-42.3,12.6l-13.3,13.7c-5.8,6.8-6.3,12.9,1.3,19
		l223.2,146.4c6.1,3.5,9.5,7.8,9,15.2c0,0-25.8,43.7-16.3,54c10.3,11.1,59.2-12.9,59.2-12.9c7.1-0.7,14.9,3.5,18.1,9.4
		c45.6,68.4,91.2,136.8,136.8,205.2c6.6,8.1,12.7,13.9,21.9,6.5l20.6-20.6c10.4-18.1,7.4-34.4,5.8-53.1l-40.7-249.4
		c-2-25.2,36-36.3,80-71.1l323.4-323.4l0.2,0l0.1,0.1l0.1-0.1l0.1,0.1l0.1-0.1l0.1,0.1l0.1-0.1l0.1,0.1c0.6-0.3,1.2-0.7,1.7-1
		c0.6-0.3,1.2-0.5,1.8-0.8c0.6-0.3,1.1-0.5,1.7-0.7c0.6-0.2,1.1-0.5,1.7-0.7c0.6-0.2,1.1-0.3,1.7-0.4c0.6-0.1,1.1-0.2,1.7-0.2
		c0.6,0,1.1,0,1.7,0c0.6,0,1.3,0.1,1.8,0.2c0.6,0.1,1.1,0.2,1.6,0.4c0.6,0.2,1.3,0.4,1.9,0.6c0.6,0.2,1.1,0.5,1.7,0.8
		c0.6,0.3,1.2,0.8,1.8,1.2c0.6,0.4,1.1,0.8,1.7,1.3c0.6,0.5,1.2,1.1,1.7,1.7c0.6,0.6,1.2,1.3,1.8,2c0.6,0.7,1.2,1.4,1.8,2.2
		c0.6,0.8,85.9,124.5,142.9,244.9c57,120.4,174,476.7,174,476.7c4.5,6.4,9.8,10.2,14.9,6.4l40.4-40.4c11.2-10.5,13.2-27.8,11.9-37.7
		l-32.8-227c0.1-9.1,0-11,2.6-13.8l76.8-76.8c7-7,6-19.5-2.3-27.9l-18.7-18.7c-8.3-8.3-20.7-9.3-27.8-2.2l-23.3,23.3
		c-12.4,15.3-21.9,16.1-25.6-0.7l-34.9-219.9c-0.8-4.9-1.4-5.7,0.7-7.6l74.7-74.7c7-7,6-19.5-2.3-27.9l-18.7-18.7
		c-8.3-8.3-20.7-9.3-27.8-2.2l-12.8,12.8c-15.7,19.9-33.1,9.6-33.7-8.2l-33.4-225.8c-1.4-10.7,0.8-14,6.6-21.1l143.2-143.2
		c13.7-14.5,28.7-31.3,39.8-46.1C1604.7,506.3,1690,375.1,1649.2,358.5L1649.2,358.5z"/>
</g>
<g id="Ebene_9">
</g>
<g id="Ebene_10">
</g>
</svg>
