<?xml version="1.0" encoding="utf-8"?>
<!-- Generator: Adobe Illustrator 16.0.0, SVG Export Plug-In . SVG Version: 6.00 Build 0)  -->
<!DOCTYPE svg PUBLIC "-//W3C//DTD SVG 1.1//EN" "http://www.w3.org/Graphics/SVG/1.1/DTD/svg11.dtd">
<svg version="1.1" xmlns="http://www.w3.org/2000/svg" xmlns:xlink="http://www.w3.org/1999/xlink" x="0px" y="0px" width="2000px"
	 height="2000px" viewBox="0 0 2000 2000" style="enable-background:new 0 0 2000 2000;" xml:space="preserve">
<g id="Button">
</g>
<g id="Minus">
</g>
<g id="Plus">
</g>
<g id="Globe">
</g>
<g id="collapse">
</g>
<g id="Airports">
</g>
<g id="Airports__x28_marker_x29_">
</g>
<g id="Flights">
</g>
<g id="Ebene_9">
</g>
<g id="Ebene_10">
	<g>
		<path style="fill:none;" d="M239.5,904.1C410,1012.5,591.9,1095,787,1147.4c242.5,65,485.2,128.9,728.1,192.3
			c88.4,23.1,179.1,26.6,269.9,22.6c20.5-0.9,41.6-5,60.9-11.9c55-19.9,64.1-51.5,30.9-99.2c-23.8-34-58.5-54-94-73
			c-134.9-72-279.8-115.5-428.1-148.3c-39-8.6-60.9-26.1-73.8-65.3c-79.4-241.3-165.7-480.5-239.9-723.4
			c-25.2-82.5-66-123.1-148.5-127.2c-1.5-0.1-3-0.4-4.4-0.9c-22.5-7.9-34-0.4-34.7,23.9c-0.4,14.8-2.1,29.6-3.1,44.4
			c-15,214.9-30.2,429.8-44.6,644.7c-2,29.9-5.9,47.6-44.3,37.2c-137.7-37.1-276-71.9-414.4-106.3c-29.9-7.4-44-22.5-49.6-53.5
			C284.2,629,266.5,555.3,251,481.1c-6.1-28.9-21.7-52.7-51.1-53.8c-27.5-1-31.3,28.3-36.9,49c-15.8,58.8-27.4,118.8-45,177
			c-23.2,76.9,6.4,136.8,55.4,191C193.3,866.2,217.3,884.3,239.5,904.1z"/>
		<path style="fill-rule:evenodd;clip-rule:evenodd;" d="M239.5,904.1c-22.1-19.8-46.2-37.9-66-59.8c-49-54.2-78.7-114.1-55.4-191
			c17.6-58.2,29.2-118.2,45-177c5.6-20.7,9.4-50,36.9-49c29.4,1.1,45,24.9,51.1,53.8c15.5,74.2,33.1,147.9,46.6,222.4
			c5.6,30.9,19.6,46,49.6,53.5c138.4,34.4,276.7,69.2,414.4,106.3c38.4,10.3,42.3-7.3,44.3-37.2c14.4-214.9,29.6-429.8,44.6-644.7
			c1-14.8,2.7-29.6,3.1-44.4c0.7-24.3,12.1-31.8,34.7-23.9c1.4,0.5,2.9,0.8,4.4,0.9c82.5,4.1,123.3,44.7,148.5,127.2
			c74.1,242.9,160.5,482,239.9,723.4c12.9,39.3,34.8,56.7,73.8,65.3c148.3,32.8,293.2,76.3,428.1,148.3c35.5,19,70.3,38.9,94,73
			c33.3,47.7,24.1,79.3-30.9,99.2c-19.3,7-40.4,11-60.9,11.9c-90.9,4-181.5,0.5-269.9-22.6c-242.9-63.4-485.7-127.3-728.1-192.3
			C591.9,1095,410,1012.5,239.5,904.1z"/>
	</g>
	<rect x="750" y="1590" width="1200" height="200"/>
</g>
</svg>
