<?xml version="1.0" encoding="utf-8"?>
<!-- Generator: Adobe Illustrator 16.0.0, SVG Export Plug-In . SVG Version: 6.00 Build 0)  -->
<!DOCTYPE svg PUBLIC "-//W3C//DTD SVG 1.1//EN" "http://www.w3.org/Graphics/SVG/1.1/DTD/svg11.dtd">
<svg version="1.1" xmlns="http://www.w3.org/2000/svg" xmlns:xlink="http://www.w3.org/1999/xlink" x="0px" y="0px" width="2000px"
	 height="2000px" viewBox="0 0 2000 2000" style="enable-background:new 0 0 2000 2000;" xml:space="preserve">
<g id="Button">
</g>
<g id="Minus">
</g>
<g id="Plus">
</g>
<g id="Globe">
</g>
<g id="collapse">
</g>
<g id="Airports">
</g>
<g id="Airports__x28_marker_x29_">
</g>
<g id="Flights">
</g>
<g id="Ebene_9">
</g>
<g id="Ebene_10">
	<g>
		<path style="fill:none;" d="M371.2,1282.3c201.7-12.5,397.4-52.7,586-125.1c234.4-89.9,468.3-180.9,702.1-272.4
			c85.1-33.3,160.5-83.8,231.7-140.4c16-12.8,30.8-28.5,42.2-45.5c32.8-48.5,21.6-79.4-33.3-98.4c-39.3-13.6-79.1-9.3-119-3.8
			c-151.4,21-294.2,71-433.5,131.6c-36.6,15.9-64.6,14.7-98.1-9.5c-206.1-148.6-416.5-291.3-619.2-444.2
			c-68.9-52-125.7-60.8-194.9-15.6c-1.2,0.8-2.6,1.4-4.1,1.8c-22.9,6.8-27.7,19.7-14,39.7c8.4,12.2,15.7,25.2,23.6,37.8
			C554.9,521.2,668.9,704,783.6,886.3c16,25.4,23.2,42-13.9,56.2c-133.2,50.9-265.6,104-397.7,157.5c-28.6,11.6-48.8,7.6-71.5-14.1
			c-54.7-52.4-112.3-101.7-168.5-152.5C110,913.5,83.4,903.5,59,919.9c-22.8,15.3-8.7,41.3-1,61.3c21.8,56.9,47.6,112.2,67.6,169.7
			c26.4,75.9,85.6,106.9,157.1,121.9C311.6,1278.9,341.7,1279.3,371.2,1282.3z"/>
		<path style="fill-rule:evenodd;clip-rule:evenodd;" d="M371.2,1282.3c-29.5-3-59.6-3.5-88.5-9.6c-71.5-15-130.7-46.1-157.1-121.9
			c-20-57.4-45.8-112.8-67.6-169.7c-7.7-20-21.8-46,1-61.3c24.4-16.4,51.1-6.3,72.9,13.5c56.1,50.9,113.8,100.2,168.5,152.5
			c22.7,21.7,42.9,25.7,71.5,14.1c132.2-53.5,264.5-106.6,397.7-157.5c37.1-14.2,29.9-30.8,13.9-56.2
			C668.9,704,554.9,521.2,440.7,338.5c-7.9-12.6-15.2-25.6-23.6-37.8c-13.7-20-8.9-32.9,14-39.7c1.4-0.4,2.8-1,4.1-1.8
			c69.1-45.2,126-36.3,194.9,15.6c202.7,152.9,413.2,295.7,619.2,444.2c33.5,24.2,61.5,25.4,98.1,9.5
			c139.3-60.6,282.1-110.6,433.5-131.6c39.9-5.5,79.7-9.8,119,3.8c54.9,19,66.1,49.9,33.3,98.4c-11.5,17-26.2,32.7-42.2,45.5
			c-71.2,56.6-146.6,107.1-231.7,140.4c-233.8,91.5-467.7,182.5-702.1,272.4C768.6,1229.7,572.9,1269.8,371.2,1282.3z"/>
	</g>
	<rect x="50" y="1590" width="1200" height="200"/>
</g>
</svg>
